<svg xmlns="http://www.w3.org/2000/svg" viewBox="0 0 400 400" width="400" height="400">
  <defs>
    <linearGradient id="bg" x1="0%" y1="0%" x2="100%" y2="100%">
      <stop offset="0%" style="stop-color:#1A0E1A"/>
      <stop offset="100%" style="stop-color:#100810"/>
    </linearGradient>
  </defs>
  <rect width="400" height="400" fill="url(#bg)"/>
  <!-- Two hearts interlinked -->
  <path d="M 175 190 Q 175 155 155 145 Q 120 140 120 170 Q 120 195 175 230 Q 230 195 230 170 Q 230 140 195 145 Q 175 155 175 190 Z" fill="none" stroke="#E8B4B8" stroke-width="2.5"/>
  <path d="M 225 200 Q 225 165 205 155 Q 170 150 170 180 Q 170 205 225 240 Q 280 205 280 180 Q 280 150 245 155 Q 225 165 225 200 Z" fill="none" stroke="#C9A96E" stroke-width="2.5"/>
  <!-- Decorative rings -->
  <circle cx="200" cy="200" r="130" fill="none" stroke="#C9A96E" stroke-width="0.5" opacity="0.2"/>
  <circle cx="200" cy="200" r="155" fill="none" stroke="#E8B4B8" stroke-width="0.5" opacity="0.12"/>
  <!-- Stars -->
  <circle cx="110" cy="130" r="2" fill="#C9A96E" opacity="0.5"/>
  <circle cx="290" cy="140" r="2" fill="#E8B4B8" opacity="0.5"/>
  <circle cx="150" cy="290" r="1.5" fill="#C9A96E" opacity="0.4"/>
  <circle cx="260" cy="300" r="1.5" fill="#E8B4B8" opacity="0.4"/>
  <!-- Infinity symbol below -->
  <path d="M 155 310 Q 155 295 170 295 Q 185 295 200 310 Q 215 325 230 325 Q 245 325 245 310 Q 245 295 230 295 Q 215 295 200 310 Q 185 325 170 325 Q 155 325 155 310 Z" fill="none" stroke="#C9A96E" stroke-width="1.5" opacity="0.5"/>
</svg>
