<svg xmlns="http://www.w3.org/2000/svg" viewBox="0 0 400 400" width="400" height="400">
  <defs>
    <linearGradient id="bg" x1="0%" y1="0%" x2="100%" y2="100%">
      <stop offset="0%" style="stop-color:#1A0E08"/>
      <stop offset="100%" style="stop-color:#120808"/>
    </linearGradient>
  </defs>
  <rect width="400" height="400" fill="url(#bg)"/>
  <!-- Diya lamp (festival) -->
  <path d="M 140 240 Q 140 210 200 205 Q 260 210 260 240 Q 260 270 200 275 Q 140 270 140 240 Z" fill="none" stroke="#C9A96E" stroke-width="2"/>
  <!-- Diya spout -->
  <path d="M 255 235 Q 285 225 295 230 Q 285 240 255 245" fill="none" stroke="#C9A96E" stroke-width="2"/>
  <!-- Flame -->
  <line x1="200" y1="205" x2="200" y2="175" stroke="#8B6914" stroke-width="2"/>
  <ellipse cx="200" cy="162" rx="14" ry="20" fill="#FFE066" opacity="0.9"/>
  <ellipse cx="200" cy="167" rx="8" ry="13" fill="#FF8C42"/>
  <ellipse cx="200" cy="162" rx="30" ry="42" fill="#FFD580" opacity="0.18"/>
  <!-- Oil inside diya -->
  <path d="M 155 245 Q 200 242 245 245" stroke="#E8C97A" stroke-width="1" fill="none" opacity="0.5"/>
  <!-- Decorative rangoli pattern around -->
  <circle cx="200" cy="240" r="80" fill="none" stroke="#C9A96E" stroke-width="0.5" opacity="0.3"/>
  <circle cx="200" cy="240" r="100" fill="none" stroke="#C9A96E" stroke-width="0.3" opacity="0.2"/>
  <line x1="200" y1="140" x2="200" y2="340" stroke="#C9A96E" stroke-width="0.5" opacity="0.2"/>
  <line x1="100" y1="240" x2="300" y2="240" stroke="#C9A96E" stroke-width="0.5" opacity="0.2"/>
  <line x1="130" y1="170" x2="270" y2="310" stroke="#C9A96E" stroke-width="0.3" opacity="0.15"/>
  <line x1="270" y1="170" x2="130" y2="310" stroke="#C9A96E" stroke-width="0.3" opacity="0.15"/>
  <!-- Floating dots -->
  <circle cx="150" cy="160" r="2" fill="#FFE066" opacity="0.5"/>
  <circle cx="250" cy="160" r="2" fill="#FFE066" opacity="0.5"/>
  <circle cx="120" cy="290" r="2" fill="#C9A96E" opacity="0.4"/>
  <circle cx="280" cy="290" r="2" fill="#C9A96E" opacity="0.4"/>
</svg>
