<svg xmlns="http://www.w3.org/2000/svg" viewBox="0 0 400 400" width="400" height="400">
  <defs>
    <linearGradient id="bg" x1="0%" y1="0%" x2="100%" y2="100%">
      <stop offset="0%" style="stop-color:#2C1F14"/>
      <stop offset="100%" style="stop-color:#1A1210"/>
    </linearGradient>
  </defs>
  <rect width="400" height="400" fill="url(#bg)"/>
  <!-- Candle illustration -->
  <rect x="160" y="120" width="80" height="200" rx="6" fill="#F5F0E8" opacity="0.9"/>
  <rect x="158" y="118" width="84" height="18" rx="4" fill="#E8E0D0"/>
  <line x1="200" y1="118" x2="200" y2="95" stroke="#5C4032" stroke-width="3"/>
  <ellipse cx="200" cy="82" rx="16" ry="24" fill="#FFE066"/>
  <ellipse cx="200" cy="88" rx="9" ry="15" fill="#FF8C42"/>
  <ellipse cx="200" cy="80" rx="35" ry="50" fill="#FFD580" opacity="0.2"/>
  <!-- Wax drip -->
  <path d="M 160 145 Q 154 165 157 185 Q 160 195 162 185 Q 162 165 160 145Z" fill="#F5F0E8" opacity="0.8"/>
  <!-- Gold label area -->
  <rect x="140" y="200" width="120" height="50" fill="none" stroke="#C9A96E" stroke-width="1" opacity="0.4"/>
  <text x="200" y="230" font-family="Georgia, serif" font-size="11" fill="#C9A96E" text-anchor="middle" letter-spacing="2">ELVA</text>
  <!-- Decorative circles -->
  <circle cx="200" cy="200" r="150" fill="none" stroke="#C9A96E" stroke-width="0.5" opacity="0.2"/>
  <circle cx="200" cy="200" r="180" fill="none" stroke="#C9A96E" stroke-width="0.3" opacity="0.1"/>
</svg>
